<?xml version="1.0" encoding="UTF-8" standalone="no"?>
<!-- Created with Inkscape (http://www.inkscape.org/) -->

<svg
   width="401mm"
   height="240mm"
   viewBox="0 0 401 240"
   version="1.1"
   id="svg1"
   inkscape:version="1.3 (0e150ed6c4, 2023-07-21)"
   sodipodi:docname="drawing.svg"
   inkscape:export-filename="drawing.png"
   inkscape:export-xdpi="96"
   inkscape:export-ydpi="96"
   xmlns:inkscape="http://www.inkscape.org/namespaces/inkscape"
   xmlns:sodipodi="http://sodipodi.sourceforge.net/DTD/sodipodi-0.dtd"
   xmlns="http://www.w3.org/2000/svg"
   xmlns:svg="http://www.w3.org/2000/svg">
  <sodipodi:namedview
     id="namedview1"
     pagecolor="#ffffff"
     bordercolor="#000000"
     borderopacity="0.25"
     inkscape:showpageshadow="2"
     inkscape:pageopacity="0.0"
     inkscape:pagecheckerboard="0"
     inkscape:deskcolor="#d1d1d1"
     inkscape:document-units="mm"
     inkscape:zoom="0.49854184"
     inkscape:cx="578.68763"
     inkscape:cy="725.11466"
     inkscape:window-width="1306"
     inkscape:window-height="1020"
     inkscape:window-x="288"
     inkscape:window-y="0"
     inkscape:window-maximized="0"
     inkscape:current-layer="layer1" />
  <defs
     id="defs1">
    <inkscape:path-effect
       effect="bspline"
       id="path-effect7"
       is_visible="true"
       lpeversion="1.3"
       weight="33.333333"
       steps="2"
       helper_size="0"
       apply_no_weight="true"
       apply_with_weight="true"
       only_selected="false"
       uniform="false" />
    <inkscape:path-effect
       effect="bspline"
       id="path-effect6"
       is_visible="true"
       lpeversion="1.3"
       weight="33.333333"
       steps="2"
       helper_size="0"
       apply_no_weight="true"
       apply_with_weight="true"
       only_selected="false"
       uniform="false" />
    <inkscape:path-effect
       effect="bspline"
       id="path-effect5"
       is_visible="true"
       lpeversion="1.3"
       weight="33.333333"
       steps="2"
       helper_size="0"
       apply_no_weight="true"
       apply_with_weight="true"
       only_selected="false"
       uniform="false" />
    <inkscape:path-effect
       effect="bspline"
       id="path-effect4"
       is_visible="true"
       lpeversion="1.3"
       weight="33.333333"
       steps="2"
       helper_size="0"
       apply_no_weight="true"
       apply_with_weight="true"
       only_selected="false"
       uniform="false" />
    <inkscape:path-effect
       effect="bspline"
       id="path-effect2"
       is_visible="true"
       lpeversion="1.3"
       weight="33.333333"
       steps="2"
       helper_size="0"
       apply_no_weight="true"
       apply_with_weight="true"
       only_selected="false"
       uniform="false" />
    <inkscape:path-effect
       effect="bspline"
       id="path-effect3"
       is_visible="true"
       lpeversion="1.3"
       weight="33.333333"
       steps="2"
       helper_size="0"
       apply_no_weight="true"
       apply_with_weight="true"
       only_selected="false"
       uniform="false" />
    <inkscape:path-effect
       effect="bspline"
       id="path-effect1"
       is_visible="true"
       lpeversion="1.3"
       weight="33.333333"
       steps="2"
       helper_size="0"
       apply_no_weight="true"
       apply_with_weight="true"
       only_selected="false"
       uniform="false" />
  </defs>
  <g
     inkscape:label="Layer 1"
     inkscape:groupmode="layer"
     id="layer1">
    <path
       style="fill:#ea9959;fill-opacity:1;stroke-width:0.264583"
       d="m 1.1467181,123.46332 c 14.7216699,3.31352 29.4430569,6.62698 39.0548909,11.26996 9.611834,4.64299 14.113277,10.61502 18.063162,17.35307 3.949885,6.73805 7.347739,14.24131 6.230127,24.49176 -1.117613,10.25044 -6.750565,23.24684 -14.187091,33.42055 -7.436526,10.1737 -16.675739,17.5235 -25.816749,22.83391 -9.14101,5.31042 -18.1829082,8.58089 -27.2249852,11.85142"
       id="path3"
       inkscape:path-effect="#path-effect3"
       inkscape:original-d="m 1.1467181,123.46332 c 14.7216699,3.31352 29.4430559,6.62698 44.1650139,9.94056 4.501709,5.97239 9.003155,11.94442 13.504866,17.91681 3.398059,7.50371 6.795914,15.00697 10.193974,22.51069 -5.63329,12.99717 -11.26624,25.99357 -16.899529,38.99075 -9.239763,7.35023 -18.478974,14.70003 -27.718737,22.05026 -9.042258,3.2706 -18.0841551,6.54107 -27.1262332,9.8116"
       transform="matrix(0.43247426,0,0,0.43859647,-1.6322015,-54.150581)"
       sodipodi:nodetypes="ccccccc" />
    <path
       style="fill:#84e6e0;fill-opacity:1;stroke-width:0.264583"
       d="m -8.3039336,56.937678 c 39.5880166,4.470884 79.1752426,8.941678 123.6250936,6.66271 44.44985,-2.278969 93.75778,-11.307339 144.73022,-10.58222 50.97244,0.725119 103.60351,11.203683 131.12789,15.867315 27.52437,4.663633 29.93919,3.511846 30.2139,23.458281 0.27471,19.946436 -1.59074,60.989506 -5.30478,82.383766 -3.71404,21.39426 -9.27644,23.13884 -20.22577,23.83178 -10.94933,0.69293 -27.2852,0.33421 -48.74117,-1.77482 -21.45597,-2.10903 -48.0298,-5.96812 -85.69434,-3.53231 -37.66454,2.43582 -86.41524,11.16625 -130.23428,11.2683 -43.819034,0.10205 -82.701888,-8.42446 -121.5855178,-16.95115"
       id="path4"
       inkscape:path-effect="#path-effect5"
       inkscape:original-d="M -8.3039336,56.937678 C 31.284083,61.408562 70.871309,65.879356 110.46012,70.35033 c 49.31089,-9.028911 98.61882,-18.057281 147.9297,-27.08619 52.634,10.479147 105.26507,20.957711 157.89888,31.43682 2.41494,-1.151845 4.82976,-2.30363 7.24471,-3.45548 -1.86552,41.04472 -3.73098,82.08779 -5.59647,123.13168 -5.56259,1.74463 -11.12499,3.48921 -16.68748,5.23381 -16.33617,-0.35872 -32.67204,-0.71744 -49.00855,-1.07618 -26.57543,-3.85932 -53.14926,-7.71842 -79.72469,-11.57775 -48.75365,8.73096 -97.50435,17.46139 -146.25801,26.19235 C 87.373796,204.62253 48.490941,196.09602 9.6073122,187.56933"
       transform="matrix(1.0336819,0,0,1.0221938,-10.452025,-1.2972938)"
       sodipodi:nodetypes="ccccccccccc" />
    <path
       style="fill:#f78484;fill-opacity:1;stroke-width:0.264583"
       d="m 402.08755,1.0738479 c -5.22173,2.4529625 -10.44334,4.9058695 -12.25239,9.3003961 -1.80905,4.394526 -0.20543,10.730168 2.44147,14.709688 2.64689,3.979519 6.33678,5.602441 8.35549,5.892796 2.0187,0.290354 2.36611,-0.751859 2.71352,-1.794097"
       id="path6"
       inkscape:path-effect="#path-effect6"
       inkscape:original-d="m 402.08755,1.0738479 c -5.22173,2.4529599 -10.44334,4.9058687 -15.66517,7.3588797 1.60373,6.3360414 3.20735,12.6716854 4.81108,19.0077274 3.69006,1.622995 7.37995,3.245919 11.06994,4.868884 0.34742,-1.042257 0.69482,-2.084472 1.04224,-3.126708"
       sodipodi:nodetypes="ccccc" />
    <path
       sodipodi:type="star"
       style="fill:#f3a944;fill-opacity:1;stroke-width:0.264583"
       id="path7"
       inkscape:flatsided="false"
       sodipodi:sides="15"
       sodipodi:cx="332.74319"
       sodipodi:cy="26.531017"
       sodipodi:r1="12.272586"
       sodipodi:r2="17.710026"
       sodipodi:arg1="1.4352686"
       sodipodi:arg2="1.6328922"
       inkscape:rounded="0"
       inkscape:randomized="0"
       d="m 334.40138,38.691066 -2.7572,5.515844 -2.33209,-5.89269 -4.76233,3.91752 0.2663,-6.331788 -5.944,1.64182 2.81865,-5.676062 -6.0979,-0.917765 4.88362,-4.038894 -5.19742,-3.31866 6.10418,-1.703364 -3.39826,-5.145729 6.26926,0.926692 -1.0115,-6.083054 5.35034,3.396516 1.55014,-5.9685644 3.50629,5.2790504 3.84376,-4.8220551 1.05597,6.2487901 5.47275,-2.84177 -1.57693,6.138057 6.15546,-0.370116 -3.93717,4.965997 5.77384,2.165535 -5.61664,2.935272 4.39385,4.326744 -6.32493,0.397012 2.25414,5.73982 -5.9396,-2.209896 -0.27533,6.16043 z"
       inkscape:transform-center-x="-0.056104285"
       inkscape:transform-center-y="0.29747272"
       transform="translate(41.270471,13.633995)" />
    <path
       style="fill:#ffef7c;fill-opacity:1;stroke-width:0.264583"
       id="path8"
       sodipodi:type="arc"
       sodipodi:cx="373.76297"
       sodipodi:cy="40.163151"
       sodipodi:rx="10.481095"
       sodipodi:ry="10.239053"
       sodipodi:start="0"
       sodipodi:end="6.1097083"
       sodipodi:open="true"
       sodipodi:arc-type="arc"
       d="m 384.24407,40.163151 a 10.481095,10.239053 0 0 1 -10.02669,10.229425 10.481095,10.239053 0 0 1 -10.8961,-9.342418 10.481095,10.239053 0 0 1 9.08186,-11.039519 10.481095,10.239053 0 0 1 11.68361,8.385167" />
    <path
       style="fill:#211c16;stroke-width:0.264583"
       d="M -1.1054627,1872.5248 C 22.354831,1866.0149 63.134,1856.4342 99.860123,1857.0485 c 36.726127,0.6142 69.397917,11.423 102.930527,18.7927 33.53261,7.3698 67.92398,11.3002 105.1415,7.2467 37.21751,-4.0534 77.2589,-16.0904 98.38548,-21.9862 21.12658,-5.8958 23.33744,-5.6501 24.93424,20.7586 1.59679,26.4087 2.57939,78.9784 2.45655,108.5802 -0.12284,29.6018 -1.35109,36.2344 -76.64664,38.691 -75.29554,2.4566 -224.65235,0.737 -302.034538,0 -77.382186,-0.737 -82.786549,-0.4913 -86.102937,-24.1978 -3.316388,-23.7064 -4.544651,-71.363 -2.088029,-96.9114 2.456622,-25.5485 8.597968,-28.9876 32.0582613,-35.4975 z"
       id="path1"
       inkscape:path-effect="#path-effect7"
       inkscape:original-d="m -18.424317,1875.5955 c 40.779155,-9.5806 81.55831,-19.1613 122.337467,-28.7419 32.67311,10.8091 65.34491,21.6178 98.01737,32.4268 34.39274,3.9306 68.78411,7.861 103.17618,11.7915 40.04297,-12.0374 80.08435,-24.0744 120.12655,-36.1116 2.21096,0.2456 4.42182,0.4913 6.63276,0.7369 0.98263,52.5718 1.96524,105.1415 2.94788,157.7122 -1.2283,6.6329 -2.45658,13.2655 -3.68485,19.8983 -149.3628,-1.7197 -298.71961,-3.4393 -448.079412,-5.1588 -5.404574,0.2456 -10.808933,0.4913 -16.2134,0.7369 -1.228312,-47.6585 -2.456574,-95.3151 -3.684862,-142.9727 6.141561,-3.4392 12.282878,-6.8784 18.424317,-10.3176 z" />
  </g>
</svg>
